<svg xmlns="http://www.w3.org/2000/svg" width="16.948" height="25.996" viewBox="0 0 16.948 25.996">
  <g id="グループ_126" data-name="グループ 126" transform="translate(0.5 0.5)">
    <g id="グループ_32" data-name="グループ 32" transform="translate(0 0)">
      <path id="パス_22" data-name="パス 22" d="M15.485,25H.464A.464.464,0,0,1,0,24.532V.464A.464.464,0,0,1,.464,0H15.485a.464.464,0,0,1,.464.464V24.532a.464.464,0,0,1-.464.464" transform="translate(0 0)" fill="none" stroke="#313131" stroke-width="1"/>
      <path id="パス_23" data-name="パス 23" d="M9.786,9.92H6.463A.464.464,0,0,1,6,9.456V6.133a.464.464,0,0,1,.464-.464H9.786a.464.464,0,0,1,.464.464V9.456a.464.464,0,0,1-.464.464" transform="translate(-3.217 -3.04)" fill="none" stroke="#313131" stroke-width="1"/>
      <path id="パス_24" data-name="パス 24" d="M22.685,9.92H19.362a.464.464,0,0,1-.464-.464V6.133a.464.464,0,0,1,.464-.464h3.324a.464.464,0,0,1,.464.464V9.456a.464.464,0,0,1-.464.464" transform="translate(-10.136 -3.04)" fill="none" stroke="#313131" stroke-width="1"/>
      <path id="パス_25" data-name="パス 25" d="M9.786,23.314H6.463A.464.464,0,0,1,6,22.85V19.527a.464.464,0,0,1,.464-.464H9.786a.464.464,0,0,1,.464.464V22.85a.464.464,0,0,1-.464.464" transform="translate(-3.217 -10.224)" fill="none" stroke="#313131" stroke-width="1"/>
      <path id="パス_26" data-name="パス 26" d="M22.685,23.314H19.362a.464.464,0,0,1-.464-.464V19.527a.464.464,0,0,1,.464-.464h3.324a.464.464,0,0,1,.464.464V22.85a.464.464,0,0,1-.464.464" transform="translate(-10.136 -10.224)" fill="none" stroke="#313131" stroke-width="1"/>
      <path id="パス_27" data-name="パス 27" d="M16.777,44.951H11.41V37.671a.464.464,0,0,1,.464-.464h4.44a.464.464,0,0,1,.464.464Z" transform="translate(-6.12 -19.955)" fill="none" stroke="#313131" stroke-width="1"/>
    </g>
  </g>
</svg>
