<svg xmlns="http://www.w3.org/2000/svg" width="10.511" height="15.611" viewBox="0 0 10.511 15.611">
  <g id="グループ_405" data-name="グループ 405" transform="translate(-98.89 -8489.194)">
    <g id="グループ_315" data-name="グループ 315" transform="translate(-1140.676 8441.194)">
      <path id="パス_3" data-name="パス 3" d="M5.255,0A5.255,5.255,0,0,0,0,5.255C0,8.218,1.468,8.849,3.091,10.82a9.707,9.707,0,0,1,2.164,4.792A9.707,9.707,0,0,1,7.419,10.82c1.623-1.971,3.091-2.6,3.091-5.564A5.255,5.255,0,0,0,5.255,0m0,7.071A1.816,1.816,0,1,1,7.071,5.255,1.816,1.816,0,0,1,5.255,7.071" transform="translate(1239.566 48)" fill="#fff"/>
    </g>
  </g>
</svg>
