<svg xmlns="http://www.w3.org/2000/svg" width="20.369" height="26.086" viewBox="0 0 20.369 26.086">
  <g id="グループ_104" data-name="グループ 104" transform="translate(0.562 0.52)">
    <path id="パス_72" data-name="パス 72" d="M11.233,26.248l9.031-8.564a1.329,1.329,0,0,0-.464-1.261,1.329,1.329,0,0,0-1.261-.464l-5.679,5.988L9.7,25.283,1.171,34.272a.569.569,0,0,0-.017.8.569.569,0,0,0,.8-.017l6.639-6.3Z" transform="translate(-1.001 -13.187)" fill="none" stroke="#313131" stroke-miterlimit="10" stroke-width="1"/>
    <path id="パス_73" data-name="パス 73" d="M27.016,83.236a.551.551,0,1,0,1.04.362l4.382-11.587-2.644,2.507Z" transform="translate(-22.206 -58.952)" fill="none" stroke="#313131" stroke-miterlimit="10" stroke-width="1"/>
    <path id="パス_74" data-name="パス 74" d="M54.359,2.04a1.329,1.329,0,0,0-.967-.933,1.329,1.329,0,0,0-1.337.131L48.276,13.1,51.44,9.759Z" transform="translate(-39.581 -1)" fill="none" stroke="#313131" stroke-miterlimit="10" stroke-width="1"/>
  </g>
</svg>
