<svg xmlns="http://www.w3.org/2000/svg" width="75.304" height="36.328" viewBox="0 0 75.304 36.328">
  <g id="グループ_119" data-name="グループ 119" transform="translate(-30 -29)">
    <path id="パス_5" data-name="パス 5" d="M.83.83H66.249l8.225,4.935v24.8L66.249,35.5H.83ZM0,0V36.328H66.478l8.825-5.3V5.3L66.478,0Z" transform="translate(30 29)" fill="#fff"/>
    <g id="グループ_100" data-name="グループ 100" transform="translate(35.356 35.531)">
      <path id="パス_6" data-name="パス 6" d="M17.537,18.309v8.322H15.15V18.309H12.9V16.295h6.881v2.015Z" transform="translate(-12.903 -16.062)" fill="#fff"/>
      <path id="パス_7" data-name="パス 7" d="M38.341,18.309H34.885v2h3.286v2.015H34.885v2.294h3.456v2.015H32.5V16.295h5.842Z" transform="translate(-24.363 -16.062)" fill="#fff"/>
      <path id="パス_8" data-name="パス 8" d="M50.811,26.631V16.3h2.076l5.61,6.663V16.3h2.386V26.631H58.808L53.2,19.937v6.694Z" transform="translate(-35.074 -16.062)" fill="#fff"/>
      <path id="パス_9" data-name="パス 9" d="M82.669,16.3a3.881,3.881,0,0,1,2.712.852,3.18,3.18,0,0,1,1.007,2.511,3.325,3.325,0,0,1-.883,2.433A3.523,3.523,0,0,1,82.871,23H81.414v3.627H79.028V16.3Zm-1.255,4.757h.853a1.827,1.827,0,0,0,1.286-.387,1.439,1.439,0,0,0,.387-1.023,1.366,1.366,0,0,0-.387-1.007,1.861,1.861,0,0,0-1.333-.387h-.806Z" transform="translate(-51.578 -16.062)" fill="#fff"/>
      <path id="パス_10" data-name="パス 10" d="M108.008,17.236a5.5,5.5,0,0,1,0,7.78,5.521,5.521,0,0,1-4,1.518,5.692,5.692,0,0,1-4.029-1.518,5.281,5.281,0,0,1-1.611-3.844,5.771,5.771,0,0,1,1.6-3.92,6.106,6.106,0,0,1,8.043-.016m-6.276,1.581a3.164,3.164,0,0,0-.914,2.34,3.085,3.085,0,0,0,.945,2.325,3.042,3.042,0,0,0,2.216.852,3.13,3.13,0,0,0,2.294-.883,3.1,3.1,0,0,0,.9-2.309,3.255,3.255,0,0,0-.9-2.324,3.315,3.315,0,0,0-2.278-.883,3.172,3.172,0,0,0-2.263.883" transform="translate(-62.889 -15.733)" fill="#fff"/>
      <path id="パス_11" data-name="パス 11" d="M132,18.493a2.518,2.518,0,0,0-1.736-.744,1.292,1.292,0,0,0-1.007.357.923.923,0,0,0-.263.65.726.726,0,0,0,.232.574,4.17,4.17,0,0,0,1.3.589l.775.294a4.153,4.153,0,0,1,1.41.79,2.577,2.577,0,0,1,.759,1.922,3.7,3.7,0,0,1-.915,2.557,4,4,0,0,1-2.928,1.054,4.373,4.373,0,0,1-2.046-.434,6.561,6.561,0,0,1-1.519-1.131l1.24-1.7a6.388,6.388,0,0,0,.961.79,2.406,2.406,0,0,0,1.3.372,1.651,1.651,0,0,0,1.085-.357,1.069,1.069,0,0,0,.372-.836.91.91,0,0,0-.356-.744,5.022,5.022,0,0,0-1.209-.573l-.852-.295a3.483,3.483,0,0,1-1.441-.821,2.541,2.541,0,0,1-.62-1.8,3.178,3.178,0,0,1,.9-2.325A3.329,3.329,0,0,1,130,15.734a5,5,0,0,1,3.068,1.023Z" transform="translate(-79.087 -15.733)" fill="#fff"/>
      <path id="パス_12" data-name="パス 12" d="M18.838,49.251a2.518,2.518,0,0,0-1.736-.744,1.291,1.291,0,0,0-1.007.357.922.922,0,0,0-.264.65.725.725,0,0,0,.233.574,4.153,4.153,0,0,0,1.3.589l.775.294a4.155,4.155,0,0,1,1.411.79,2.578,2.578,0,0,1,.759,1.922,3.7,3.7,0,0,1-.914,2.557,4.006,4.006,0,0,1-2.929,1.054,4.376,4.376,0,0,1-2.046-.434A6.567,6.567,0,0,1,12.9,55.728l1.239-1.7a6.41,6.41,0,0,0,.961.79,2.4,2.4,0,0,0,1.3.372,1.651,1.651,0,0,0,1.085-.357,1.069,1.069,0,0,0,.372-.836.912.912,0,0,0-.356-.744,5.039,5.039,0,0,0-1.209-.573l-.852-.295A3.486,3.486,0,0,1,14,51.56a2.54,2.54,0,0,1-.62-1.8,3.176,3.176,0,0,1,.9-2.325,3.329,3.329,0,0,1,2.557-.946,5,5,0,0,1,3.069,1.023Z" transform="translate(-12.903 -33.723)" fill="#fff"/>
      <path id="パス_13" data-name="パス 13" d="M37.094,49.067v8.322H34.707V49.067H32.46V47.053h6.881v2.015Z" transform="translate(-24.341 -34.051)" fill="#fff"/>
      <path id="パス_14" data-name="パス 14" d="M53.69,53.608l-1.271-3.472-1.286,3.472-.7,1.829-.79,1.952h-2.48l4.169-10.336H53.52L57.6,57.389H55.116l-.775-1.952Z" transform="translate(-32.942 -34.051)" fill="#fff"/>
      <path id="パス_15" data-name="パス 15" d="M77.964,47.053a3.7,3.7,0,0,1,2.635.9,3.118,3.118,0,0,1,.9,2.309,2.829,2.829,0,0,1-.806,2.108,3.26,3.26,0,0,1-1.441.79l3.177,4.231H79.514l-2.789-4.076v4.076H74.338V47.053Zm-1.239,4.7h.543a1.959,1.959,0,0,0,1.425-.45,1.387,1.387,0,0,0,.387-1.007,1.255,1.255,0,0,0-.48-1.054,2.332,2.332,0,0,0-1.317-.325h-.558Z" transform="translate(-48.834 -34.051)" fill="#fff"/>
    </g>
    <path id="パス_16" data-name="パス 16" d="M56.2,60.487l.591,1.818H58.7l-1.547,1.124.591,1.818L56.2,64.123l-1.546,1.123.591-1.818L53.7,62.305h1.912Z" transform="translate(-1.407 -6.378)" fill="#fff"/>
    <path id="パス_17" data-name="パス 17" d="M161.827,38.236a1.806,1.806,0,1,1-1.806,1.806,1.808,1.808,0,0,1,1.806-1.806m0-.83a2.636,2.636,0,1,0,2.636,2.636,2.636,2.636,0,0,0-2.636-2.636" transform="translate(-63.108 7.123)" fill="#fff"/>
    <g id="グループ_101" data-name="グループ 101" transform="translate(70.859 48.845)">
      <line id="線_1" data-name="線 1" x2="18.849" transform="translate(0.001 0.415)" fill="#1a1311"/>
      <rect id="長方形_8" data-name="長方形 8" width="18.849" height="0.83" fill="#fff"/>
      <line id="線_2" data-name="線 2" x2="18.849" transform="translate(0.001 3.025)" fill="#1a1311"/>
      <rect id="長方形_9" data-name="長方形 9" width="18.849" height="1.723" transform="translate(0 1.987)" fill="#fff"/>
      <rect id="長方形_10" data-name="長方形 10" width="18.849" height="0.387" transform="translate(0 6.645)" fill="#fff"/>
      <rect id="長方形_11" data-name="長方形 11" width="18.849" height="0.623" transform="translate(0 4.866)" fill="#fff"/>
      <rect id="長方形_12" data-name="長方形 12" width="18.849" height="1.868" transform="translate(0 8.19)" fill="#fff"/>
    </g>
  </g>
</svg>
