<svg xmlns="http://www.w3.org/2000/svg" xmlns:xlink="http://www.w3.org/1999/xlink" width="90" height="43.418" viewBox="0 0 90 43.418">
  <defs>
    <clipPath id="clip-path">
      <rect id="長方形_13" data-name="長方形 13" width="90" height="43.418" fill="none"/>
    </clipPath>
  </defs>
  <g id="グループ_154" data-name="グループ 154" transform="translate(0 0)">
    <path id="パス_5" data-name="パス 5" d="M.992.992H79.177l9.83,5.9V36.527l-9.83,5.9H.992ZM0,0V43.418H79.452L90,37.089V6.329L79.452,0Z" transform="translate(0 0)" fill="#1a1311"/>
    <path id="パス_6" data-name="パス 6" d="M18.441,18.7v9.945H15.588V18.7H12.9V16.295h8.223V18.7Z" transform="translate(-6.501 -8.211)" fill="#1a1311"/>
    <path id="パス_7" data-name="パス 7" d="M39.481,18.7h-4.13v2.389h3.927V23.5H35.351V26.24h4.13v2.408H32.5V16.295h6.982Z" transform="translate(-16.375 -8.211)" fill="#1a1311"/>
    <path id="パス_8" data-name="パス 8" d="M50.811,28.648V16.3h2.482L60,24.259V16.3h2.852V28.648H60.368l-6.705-8v8Z" transform="translate(-25.602 -8.211)" fill="#1a1311"/>
    <g id="グループ_5" data-name="グループ 5" transform="translate(0 0)">
      <g id="グループ_4" data-name="グループ 4" clip-path="url(#clip-path)">
        <path id="パス_9" data-name="パス 9" d="M83.38,16.3a4.639,4.639,0,0,1,3.242,1.018,3.8,3.8,0,0,1,1.2,3,3.974,3.974,0,0,1-1.056,2.908,4.21,4.21,0,0,1-3.148,1.092H81.88v4.334H79.028V16.3Zm-1.5,5.685H82.9a2.184,2.184,0,0,0,1.537-.463,1.72,1.72,0,0,0,.463-1.222,1.632,1.632,0,0,0-.463-1.2,2.224,2.224,0,0,0-1.593-.463H81.88Z" transform="translate(-39.82 -8.21)" fill="#1a1311"/>
        <path id="パス_10" data-name="パス 10" d="M109.889,17.529a6.573,6.573,0,0,1,0,9.3,6.6,6.6,0,0,1-4.779,1.814,6.8,6.8,0,0,1-4.815-1.814,6.311,6.311,0,0,1-1.926-4.594,6.9,6.9,0,0,1,1.908-4.685,7.3,7.3,0,0,1,9.612-.019m-7.5,1.89a3.782,3.782,0,0,0-1.092,2.8,3.687,3.687,0,0,0,1.13,2.778,3.635,3.635,0,0,0,2.648,1.018,3.741,3.741,0,0,0,2.741-1.055,3.7,3.7,0,0,0,1.074-2.76,3.89,3.89,0,0,0-1.074-2.778,3.962,3.962,0,0,0-2.722-1.056,3.791,3.791,0,0,0-2.7,1.056" transform="translate(-49.565 -7.927)" fill="#1a1311"/>
        <path id="パス_11" data-name="パス 11" d="M133.158,19.031a3.01,3.01,0,0,0-2.075-.89,1.544,1.544,0,0,0-1.2.427,1.1,1.1,0,0,0-.315.777.868.868,0,0,0,.277.686,4.984,4.984,0,0,0,1.556.7l.926.352a4.964,4.964,0,0,1,1.685.945,3.08,3.08,0,0,1,.907,2.3,4.425,4.425,0,0,1-1.093,3.056,4.785,4.785,0,0,1-3.5,1.26,5.226,5.226,0,0,1-2.445-.519,7.841,7.841,0,0,1-1.815-1.351l1.481-2.037a7.633,7.633,0,0,0,1.149.945,2.876,2.876,0,0,0,1.556.444,1.974,1.974,0,0,0,1.3-.426,1.277,1.277,0,0,0,.444-1,1.088,1.088,0,0,0-.426-.889,6,6,0,0,0-1.445-.685l-1.018-.352a4.163,4.163,0,0,1-1.723-.981,3.037,3.037,0,0,1-.741-2.148,3.8,3.8,0,0,1,1.074-2.778,3.979,3.979,0,0,1,3.056-1.13,5.971,5.971,0,0,1,3.667,1.222Z" transform="translate(-63.52 -7.928)" fill="#1a1311"/>
        <path id="パス_12" data-name="パス 12" d="M20,49.789a3.01,3.01,0,0,0-2.074-.89,1.543,1.543,0,0,0-1.2.427,1.1,1.1,0,0,0-.316.777.867.867,0,0,0,.278.686,4.964,4.964,0,0,0,1.555.7l.926.352a4.966,4.966,0,0,1,1.686.945,3.082,3.082,0,0,1,.907,2.3,4.427,4.427,0,0,1-1.092,3.056,4.788,4.788,0,0,1-3.5,1.26,5.23,5.23,0,0,1-2.445-.519A7.849,7.849,0,0,1,12.9,57.531l1.481-2.037a7.661,7.661,0,0,0,1.149.945,2.873,2.873,0,0,0,1.555.444,1.973,1.973,0,0,0,1.3-.426,1.278,1.278,0,0,0,.445-1,1.09,1.09,0,0,0-.426-.889,6.023,6.023,0,0,0-1.445-.685L15.94,53.53a4.166,4.166,0,0,1-1.723-.981,3.036,3.036,0,0,1-.741-2.148,3.8,3.8,0,0,1,1.074-2.778,3.979,3.979,0,0,1,3.056-1.13,5.973,5.973,0,0,1,3.667,1.222Z" transform="translate(-6.501 -23.426)" fill="#1a1311"/>
        <path id="パス_13" data-name="パス 13" d="M38,49.461v9.945H35.145V49.461H32.46V47.053h8.223v2.408Z" transform="translate(-16.356 -23.708)" fill="#1a1311"/>
        <path id="パス_14" data-name="パス 14" d="M54.963,54.887l-1.519-4.149-1.537,4.149-.833,2.185-.944,2.333H47.166l4.983-12.353H54.76L59.63,59.406H56.667l-.927-2.333Z" transform="translate(-23.765 -23.708)" fill="#1a1311"/>
        <path id="パス_15" data-name="パス 15" d="M78.672,47.053a4.419,4.419,0,0,1,3.149,1.074A3.726,3.726,0,0,1,82.9,50.887a3.381,3.381,0,0,1-.963,2.519,3.9,3.9,0,0,1-1.723.945l3.8,5.056H80.524l-3.334-4.871v4.871H74.338V47.053Zm-1.481,5.611h.648a2.341,2.341,0,0,0,1.7-.537,1.657,1.657,0,0,0,.463-1.2,1.5,1.5,0,0,0-.574-1.26,2.788,2.788,0,0,0-1.574-.389h-.666Z" transform="translate(-37.456 -23.708)" fill="#1a1311"/>
        <path id="パス_16" data-name="パス 16" d="M56.69,60.487,57.4,62.66h2.285L57.832,64l.706,2.173L56.69,64.833l-1.848,1.343L55.548,64,53.7,62.66h2.285Z" transform="translate(-27.057 -30.477)" fill="#ffec00"/>
        <path id="パス_17" data-name="パス 17" d="M162.341,38.4a2.158,2.158,0,1,1-2.158,2.158,2.16,2.16,0,0,1,2.158-2.158m0-.992a3.15,3.15,0,1,0,3.15,3.15,3.15,3.15,0,0,0-3.15-3.15" transform="translate(-80.211 -18.848)" fill="#1a1311"/>
        <line id="線_1" data-name="線 1" x2="22.527" transform="translate(48.834 24.214)" fill="#1a1311"/>
        <rect id="長方形_8" data-name="長方形 8" width="22.527" height="0.992" transform="translate(48.834 23.718)" fill="#1a1311"/>
        <line id="線_2" data-name="線 2" x2="22.527" transform="translate(48.834 27.333)" fill="#1a1311"/>
        <rect id="長方形_9" data-name="長方形 9" width="22.527" height="2.059" transform="translate(48.834 26.092)" fill="#1a1311"/>
        <rect id="長方形_10" data-name="長方形 10" width="22.527" height="0.463" transform="translate(48.834 31.66)" fill="#1a1311"/>
        <rect id="長方形_11" data-name="長方形 11" width="22.527" height="0.744" transform="translate(48.834 29.533)" fill="#1a1311"/>
        <rect id="長方形_12" data-name="長方形 12" width="22.527" height="2.233" transform="translate(48.834 33.505)" fill="#1a1311"/>
      </g>
    </g>
  </g>
</svg>
