<svg xmlns="http://www.w3.org/2000/svg" xmlns:xlink="http://www.w3.org/1999/xlink" width="76" height="81.882" viewBox="0 0 76 81.882">
  <defs>
    <filter id="合体_3" x="0" y="0" width="76" height="81.882" filterUnits="userSpaceOnUse">
      <feOffset dy="3" input="SourceAlpha"/>
      <feGaussianBlur stdDeviation="3" result="blur"/>
      <feFlood flood-opacity="0.161"/>
      <feComposite operator="in" in2="blur"/>
      <feComposite in="SourceGraphic"/>
    </filter>
  </defs>
  <g id="グループ_193" data-name="グループ 193" transform="translate(4547 18025)">
    <g transform="matrix(1, 0, 0, 1, -4547, -18025)" filter="url(#合体_3)">
      <path id="合体_3-2" data-name="合体 3" d="M28.252,62.853l-2.817-5.071a28.991,28.991,0,1,1,9.328-.356l-3.014,5.426a2,2,0,0,1-3.5,0Z" transform="translate(9 6)" fill="#fff"/>
    </g>
    <circle id="楕円形_48" data-name="楕円形 48" cx="24" cy="24" r="24" transform="translate(-4533 -18014)" fill="#ff7c2b"/>
    <g id="グループ_130" data-name="グループ 130" transform="translate(-4526.3 -18002.5)">
      <g id="グループ_107" data-name="グループ 107" transform="translate(0 0)">
        <path id="パス_75" data-name="パス 75" d="M16.212,12.157c0,1.325-3.518,2.4-7.857,2.4S.5,13.482.5,12.157s3.518-2.4,7.857-2.4,7.857,1.074,7.857,2.4" transform="translate(-0.497 -6.661)" fill="none" stroke="#fff" stroke-width="1"/>
        <path id="パス_76" data-name="パス 76" d="M69.121,2.9c0,1.325-3.518,2.4-7.857,2.4s-7.857-1.074-7.857-2.4S56.924.5,61.264.5s7.857,1.074,7.857,2.4" transform="translate(-35.715 -0.496)" fill="none" stroke="#fff" stroke-width="1"/>
        <path id="パス_77" data-name="パス 77" d="M47.3,29.575c0,1.325-3.518,2.4-7.857,2.4s-7.857-1.074-7.857-2.4,3.518-2.4,7.857-2.4,7.857,1.074,7.857,2.4" transform="translate(-21.19 -18.255)" fill="none" stroke="#fff" stroke-width="1"/>
        <path id="パス_78" data-name="パス 78" d="M39.437,36.656c-4.34,0-7.857-1.074-7.857-2.4h0V46.744c0,1.325,3.518,2.4,7.857,2.4s7.857-1.074,7.857-2.4V34.288c-.057,1.31-3.551,2.368-7.855,2.368" transform="translate(-21.185 -22.968)" fill="none" stroke="#fff" stroke-linejoin="round" stroke-width="1"/>
        <path id="パス_80" data-name="パス 80" d="M61.266,9.977c-4.34,0-7.857-1.074-7.857-2.4h0v6.56c.187,0,.374-.007.564-.007,4.339,0,7.857,1.074,7.857,2.4,0,.011,0,.021,0,.032v5.9c4.077-.088,7.3-1.125,7.3-2.393V7.609c-.057,1.31-3.551,2.368-7.855,2.368" transform="translate(-35.715 -5.209)" fill="none" stroke="#fff" stroke-linejoin="round" stroke-width="1"/>
        <path id="パス_82" data-name="パス 82" d="M10.894,22.662c0,.005,0,.011,0,.016.022-1.047,2.239-1.934,5.316-2.255V16.87c-.056,1.31-3.55,2.368-7.855,2.368-4.34,0-7.857-1.074-7.857-2.4h0V29.326c0,1.325,3.518,2.4,7.857,2.4a24.6,24.6,0,0,0,2.537-.129V22.662Z" transform="translate(-0.496 -11.374)" fill="none" stroke="#fff" stroke-linejoin="round" stroke-width="1"/>
      </g>
    </g>
  </g>
</svg>
