<svg xmlns="http://www.w3.org/2000/svg" width="24.319" height="24.318" viewBox="0 0 24.319 24.318">
  <g id="グループ_283" data-name="グループ 283" transform="translate(-1000.229 -1032.229)">
    <path id="パス_109" data-name="パス 109" d="M12.159,0a12.159,12.159,0,1,0,12.16,12.159A12.159,12.159,0,0,0,12.159,0Z" transform="translate(1000.229 1032.229)" fill="#ff7c2b"/>
    <path id="パス_110" data-name="パス 110" d="M28.963,28.677a1.67,1.67,0,0,1,2.36-.058l.7.668a1.67,1.67,0,0,1,.058,2.36l-.438.459h0a1.669,1.669,0,0,1-.767.459l-.13.035a.289.289,0,0,0-.186.4l.057.123a8.536,8.536,0,0,0,4.406,4.254l.111.047a.289.289,0,0,0,.384-.167l.041-.112a1.658,1.658,0,0,1,.359-.578l.438-.46a1.668,1.668,0,0,1,2.36-.059l.7.668a1.671,1.671,0,0,1,.059,2.36l-.438.46a1.7,1.7,0,0,1-.423.322,2.469,2.469,0,0,1-1.514.272A10.694,10.694,0,0,1,27.818,31.3a2.113,2.113,0,0,1,.5-1.918.265.265,0,0,0,.027-.025l.02-.021a.3.3,0,0,0,.024-.029,1.609,1.609,0,0,1,.138-.165Z" transform="translate(978.531 1010.232)" fill="#fff"/>
  </g>
</svg>
