<svg xmlns="http://www.w3.org/2000/svg" xmlns:xlink="http://www.w3.org/1999/xlink" width="76" height="81.936" viewBox="0 0 76 81.936">
  <defs>
    <filter id="合体_5" x="0" y="0" width="76" height="81.936" filterUnits="userSpaceOnUse">
      <feOffset dy="3" input="SourceAlpha"/>
      <feGaussianBlur stdDeviation="3" result="blur"/>
      <feFlood flood-opacity="0.161"/>
      <feComposite operator="in" in2="blur"/>
      <feComposite in="SourceGraphic"/>
    </filter>
  </defs>
  <g id="グループ_194" data-name="グループ 194" transform="translate(4365 18025)">
    <g transform="matrix(1, 0, 0, 1, -4365, -18025)" filter="url(#合体_5)">
      <path id="合体_5-2" data-name="合体 5" d="M27.768,62.92,24.817,57.7a29,29,0,1,1,9.488-.185l-3.055,5.4a2,2,0,0,1-3.482,0Z" transform="translate(9 6)" fill="#fff"/>
    </g>
    <ellipse id="楕円形_52" data-name="楕円形 52" cx="24" cy="24" rx="24" ry="24" transform="translate(-4351 -18014)" fill="#ff7c2b"/>
    <g id="グループ_128" data-name="グループ 128" transform="translate(-4341.5 -18002.5)">
      <g id="グループ_24" data-name="グループ 24" transform="translate(0 0)">
        <path id="パス_42" data-name="パス 42" d="M28.632,21.709H10.188a.882.882,0,0,1-.882-.882V4.148A2.647,2.647,0,0,1,11.953,1.5H26.867a2.647,2.647,0,0,1,2.647,2.647V20.827A.882.882,0,0,1,28.632,21.709Z" transform="translate(-5.554 -1.501)" fill="none" stroke="#fff" stroke-miterlimit="10" stroke-width="1"/>
        <rect id="長方形_17" data-name="長方形 17" width="10.104" height="7.144" transform="translate(3.752 6.532)" fill="none" stroke="#fff" stroke-miterlimit="10" stroke-width="1"/>
        <rect id="長方形_18" data-name="長方形 18" width="10.104" height="7.144" transform="translate(13.856 6.532)" fill="none" stroke="#fff" stroke-miterlimit="10" stroke-width="1"/>
        <line id="線_10" data-name="線 10" y1="6.274" x2="9.922" transform="translate(0 20.281)" fill="none" stroke="#fff" stroke-miterlimit="10" stroke-width="1"/>
        <line id="線_11" data-name="線 11" x2="9.922" y2="6.274" transform="translate(17.79 20.281)" fill="none" stroke="#fff" stroke-miterlimit="10" stroke-width="1"/>
        <line id="線_12" data-name="線 12" x2="18.714" transform="translate(4.499 23.709)" fill="none" stroke="#fff" stroke-miterlimit="10" stroke-width="1"/>
      </g>
    </g>
  </g>
</svg>
